<?xml version="1.0" encoding="UTF-8" standalone="no"?>
<svg
   xmlns:dc="http://purl.org/dc/elements/1.1/"
   xmlns:cc="http://creativecommons.org/ns#"
   xmlns:rdf="http://www.w3.org/1999/02/22-rdf-syntax-ns#"
   xmlns:svg="http://www.w3.org/2000/svg"
   xmlns="http://www.w3.org/2000/svg"
   width="225"
   height="225"
   viewBox="0 0 225 225"
   version="1.1"
   id="svg164">
  <defs
     id="defs158" />
  <metadata
     id="metadata161">
    <rdf:RDF>
      <cc:Work
         rdf:about="">
        <dc:format>image/svg+xml</dc:format>
        <dc:type
           rdf:resource="http://purl.org/dc/dcmitype/StillImage" />
        <dc:title></dc:title>
        <cc:license
           rdf:resource="http://creativecommons.org/publicdomain/zero/1.0/" />
      </cc:Work>
      <cc:License
         rdf:about="http://creativecommons.org/publicdomain/zero/1.0/">
        <cc:permits
           rdf:resource="http://creativecommons.org/ns#Reproduction" />
        <cc:permits
           rdf:resource="http://creativecommons.org/ns#Distribution" />
        <cc:permits
           rdf:resource="http://creativecommons.org/ns#DerivativeWorks" />
      </cc:License>
    </rdf:RDF>
  </metadata>
  <g
     id="layer1"
     style="display:inline;opacity:1">
    <ellipse
       style="display:inline;fill:#000000;fill-opacity:1;stroke-width:1.07291"
       id="path237"
       cx="110.02792"
       cy="92.863686"
       rx="87.743301"
       ry="88.083534" />
    <ellipse
       style="display:inline;fill:#000000;stroke-width:0.913188"
       id="path241"
       cx="113.06935"
       cy="170.50443"
       rx="60.464443"
       ry="39.722641" />
    <path
       style="display:inline;fill:#000000;stroke-width:1.10719"
       id="path243"
       d="M 83.687825,220.04604 A 91.019539,77.960152 0 0 1 22.623632,150.22057 91.019539,77.960152 0 0 1 75.405478,75.605925 91.019539,77.960152 0 0 1 175.93495,89.641623 a 91.019539,77.960152 0 0 1 22.3846,85.109207 l -84.78596,-28.35457 z" />
    <rect
       style="display:inline;fill:#000000;stroke-width:1.48811"
       id="rect249"
       width="29.216015"
       height="17.191858"
       x="169.53548"
       y="161.6011"
       ry="6.5748634" />
    <rect
       style="display:inline;fill:#000000;stroke-width:1.06276"
       id="rect254"
       width="10.082085"
       height="15.269638"
       x="163.6255"
       y="131.32446"
       ry="5.2927246"
       transform="matrix(0.85785792,0.51388695,-0.42092826,0.90709393,0,0)" />
    <ellipse
       style="display:inline;fill:#ffffff;fill-opacity:1;stroke-width:0.999466"
       id="path22"
       cx="113.07327"
       cy="170.46063"
       rx="59.297924"
       ry="38.576206" />
    <path
       style="display:inline;fill:#3c56b0;fill-opacity:1;stroke-width:1.10426"
       id="path28"
       d="M 84.319091,218.4829 A 89.414894,76.642067 0 0 1 24.33144,149.83798 89.414894,76.642067 0 0 1 76.182759,76.484857 89.414894,76.642067 0 0 1 174.93993,90.28325 89.414894,76.642067 0 0 1 196.92989,173.9535 l -83.2912,-27.87518 z" />
    <ellipse
       style="display:inline;fill:#ffffff;fill-opacity:1;stroke:#091356;stroke-width:0;stroke-miterlimit:4;stroke-dasharray:none;stroke-opacity:1"
       id="path40"
       cx="116.91006"
       cy="158.75394"
       rx="57.343082"
       ry="36.843182" />
    <rect
       style="display:inline;fill:#091356;fill-opacity:1;stroke-width:1.28464"
       id="rect869"
       width="27.007456"
       height="13.363385"
       x="170.41864"
       y="164.65007"
       ry="5.4184546" />
    <rect
       style="display:inline;fill:#091356;fill-opacity:1;stroke:#091356;stroke-width:0;stroke-miterlimit:4;stroke-dasharray:none;stroke-opacity:1"
       id="rect871"
       width="32.893982"
       height="8.569685"
       x="164.98729"
       y="163.99971"
       ry="4.2848425" />
    <ellipse
       style="display:inline;fill:#091356;fill-opacity:1;stroke:#091356;stroke-width:0;stroke-miterlimit:4;stroke-dasharray:none;stroke-opacity:1"
       id="path873"
       ry="28.580517"
       rx="9.3822184"
       cy="151.43178"
       cx="196.7796"
       transform="matrix(0.99986148,-0.01664412,-0.02104948,0.99977844,0,0)" />
    <ellipse
       style="display:inline;fill:#3c56b0;stroke:#091356;stroke-width:0"
       id="path29"
       cx="185.97368"
       cy="147.25906"
       rx="4.5575361"
       ry="16.85815" />
    <ellipse
       style="display:inline;fill:#3c56b0;fill-opacity:1;stroke:#091356;stroke-width:0"
       id="path33"
       cx="178.14107"
       cy="163.85985"
       rx="8.5494804"
       ry="1.6174371" />
    <ellipse
       style="display:inline;fill:#091356;fill-opacity:1;stroke:#091356;stroke-width:0"
       id="path35"
       cx="110.02792"
       cy="92.863686"
       rx="85.976608"
       ry="86.90107" />
    <ellipse
       style="display:inline;fill:#091356;fill-opacity:1;stroke:#091356;stroke-width:0"
       id="path70"
       cx="27.55286"
       cy="148.35663"
       rx="6.9589658"
       ry="24.039902"
       transform="matrix(0.99328995,-0.11565069,0.0267014,0.99964345,0,0)" />
    <path
       id="ellipse43"
       style="display:inline;fill:#3c56b0;fill-opacity:1;stroke:#091356;stroke-width:0"
       d="M 194.70117,77.796875 A 90.253716,84.896462 0 0 1 104.86523,154.55116 90.253716,84.896462 0 0 1 25.798828,110.59215 85.976608,87.711695 0 0 0 110.02734,180.7168 85.976608,87.711695 0 0 0 196.00391,93.003822 85.976608,87.711695 0 0 0 194.70117,77.796875 Z" />
    <ellipse
       style="display:inline;fill:#7fa0fc;fill-opacity:1;stroke:#091356;stroke-width:0"
       id="path41"
       cx="109.87565"
       cy="95.076744"
       rx="66.639725"
       ry="68.415253" />
    <ellipse
       style="display:inline;fill:#091356;fill-opacity:1;stroke:#091356;stroke-width:0"
       id="path54"
       transform="matrix(0.99941509,-0.03419756,0.03715176,0.99930963,0,0)"
       d="m 189.70374,119.01675 a 8.4337635,22.298544 0 0 1 5.64995,26.47197 8.4337635,22.298544 0 0 1 -9.58629,16.77821 l 1.38659,-21.99511 z" />
    <ellipse
       style="display:inline;fill:#091356;fill-opacity:1;stroke:#091356;stroke-width:0"
       id="path62"
       cx="226.75374"
       cy="61.37479"
       rx="6.7483959"
       ry="22.093029"
       transform="matrix(0.93809572,0.34637613,-0.47717736,0.87880701,0,0)" />
    <ellipse
       style="display:inline;fill:#3c56b0;fill-opacity:1;stroke:#091356;stroke-width:0"
       id="path66"
       cx="221.13783"
       cy="3.0795848"
       rx="3.2329988"
       ry="22.166628"
       transform="matrix(0.82015162,0.57214625,-0.6465108,0.76290483,0,0)" />
    <ellipse
       style="display:inline;fill:#091356;fill-opacity:1;stroke:#091356;stroke-width:0"
       id="path68"
       d="m 188.08244,101.63762 a 4.1600204,26.822285 0 0 1 1.28202,-26.788413 4.1600204,26.822285 0 0 1 4.28413,-4.789993 4.1600204,26.822285 0 0 1 2.60605,22.441246 l -4.14212,2.485555 z" />
    <ellipse
       style="display:inline;fill:#3c56b0;fill-opacity:1;stroke:#091356;stroke-width:0"
       id="path74"
       cx="36.642044"
       cy="158.97508"
       rx="4.7137613"
       ry="20.015045" />
    <ellipse
       style="display:inline;fill:#091356;fill-opacity:1;stroke:#091356;stroke-width:0"
       id="path76"
       cx="85.247467"
       cy="206.09753"
       rx="6.4240484"
       ry="12.525014" />
    <path
       id="path78"
       style="display:inline;fill:#091356;fill-opacity:1;stroke:#091356;stroke-width:0"
       d="m 89.929688,191.95786 a 8.3304834,4.3589164 0 0 0 -8.292969,4.35894 8.3304834,4.3589164 0 0 0 8.332031,4.35896 8.3304834,4.3589164 0 0 0 1.425781,-0.0667 4.0276196,15.114294 80.595013 0 0 6.902344,-4.26872 8.3304834,4.3589164 0 0 0 0.002,-0.0234 8.3304834,4.3589164 0 0 0 -8.330078,-4.35894 8.3304834,4.3589164 0 0 0 -0.03906,0 z" />
    <rect
       style="display:inline;fill:#ffffff;fill-opacity:1;stroke:#091356;stroke-width:0"
       id="rect84"
       width="8.4235506"
       height="5.9818587"
       x="89.968773"
       y="200.55028"
       ry="1.7650831" />
    <g
       id="g158">
      <path
         id="path100"
         style="display:none;fill:#000000;fill-opacity:1;stroke:#091356;stroke-width:0"
         d="m 146.1133,95.073483 a 16.518022,17.468657 3.4482496 0 1 5.59788,13.177797 16.518022,17.468657 3.4482496 0 1 -16.63172,17.46637 16.518022,17.468657 3.4482496 0 1 -4.45823,-0.64831 17.12882,17.916866 0 0 0 12.38463,5.54092 17.12882,17.916866 0 0 0 17.12983,-17.91738 17.12882,17.916866 0 0 0 -14.02239,-17.619397 z" />
      <path
         id="path88"
         style="display:none;fill:#ffffff;fill-opacity:1;stroke:#091356;stroke-width:0"
         d="m 142.79427,92.971917 a 17.062178,22.883111 0 0 0 -13.7783,22.453733 17.062178,22.883111 0 0 0 1.41367,9.11299 14.283609,17.749901 0 0 0 8.08008,3.11307 14.283609,17.749901 0 0 0 14.28318,-17.74996 14.283609,17.749901 0 0 0 -9.99863,-16.929833 z" />
      <path
         id="path107"
         style="display:none;fill:#ffffff;fill-opacity:1;stroke:#091356;stroke-width:0"
         d="m 146.97656,57.759766 a 22.3249,19.593901 61.143631 0 0 -8.34375,2.166015 22.3249,19.593901 61.143631 0 0 -1.91797,1.230469 34.069575,17.758073 73.656419 0 0 3.19141,27.15625 34.069575,17.758073 73.656419 0 0 5.86523,11.97461 22.3249,19.593901 61.143631 0 0 14.41016,-1.25586 22.3249,19.593901 61.143631 0 0 6.38672,-29.009766 22.3249,19.593901 61.143631 0 0 -19.5918,-12.261718 z" />
      <path
         id="path114"
         style="display:none;fill:#000000;fill-opacity:1;stroke:#091356;stroke-width:0"
         d="m 158.39648,47.751953 a 26.844465,18.050256 73.797092 0 0 -12.87304,10.080078 22.3249,19.593901 61.143631 0 1 1.45312,-0.07227 22.3249,19.593901 61.143631 0 1 19.5918,12.261718 22.3249,19.593901 61.143631 0 1 -6.14258,28.871094 26.844465,18.050256 73.797092 0 0 6.13672,1.390617 26.844465,18.050256 73.797092 0 0 14.41992,-26.265617 26.844465,18.050256 73.797092 0 0 -22.47656,-26.265625 26.844465,18.050256 73.797092 0 0 -0.10938,0 z" />
      <path
         id="path122"
         style="display:none;fill:#000000;fill-opacity:1;stroke:#091356;stroke-width:0"
         d="m 165.45898,94.544922 a 22.3249,19.593901 61.143631 0 1 -5.27734,4.486328 22.3249,19.593901 61.143631 0 1 -9.52539,2.14063 13.459817,3.9732444 0 0 0 7.92969,0.76171 13.459817,3.9732444 0 0 0 13.45898,-3.972652 13.459817,3.9732444 0 0 0 -6.58594,-3.416016 z" />
      <path
         id="path130"
         style="display:none;fill:#ffffff;fill-opacity:1;stroke:#091356;stroke-width:0"
         d="m 120.13477,46.632812 a 16.589626,15.581487 49.499627 0 0 -8.10938,2.439454 16.589626,15.581487 49.499627 0 0 -5.69531,7.09375 18.043915,17.797962 0 0 0 17.72265,14.466796 18.043915,17.797962 0 0 0 13.23243,-5.697265 16.589626,15.581487 49.499627 0 0 -2.92578,-10.673828 16.589626,15.581487 49.499627 0 0 -14.22461,-7.628907 z" />
      <path
         id="path141"
         style="display:none;fill:#000000;fill-opacity:1;stroke:#091356;stroke-width:0"
         d="m 123.66211,34.515625 a 16.801254,17.550226 0 0 0 -16.80078,17.550781 16.801254,17.550226 0 0 0 0.17578,2.527344 16.589626,15.581487 49.499627 0 1 4.98828,-5.521484 16.589626,15.581487 49.499627 0 1 8.10938,-2.439454 16.589626,15.581487 49.499627 0 1 14.22461,7.628907 16.589626,15.581487 49.499627 0 1 1.7832,3.386719 4.275939,3.6575027 0 0 0 2.94531,1.371093 16.801254,17.550226 0 0 0 1.37695,-6.953125 16.801254,17.550226 0 0 0 -16.80273,-17.550781 z" />
      <path
         id="path152"
         style="display:none;fill:#000000;fill-opacity:1;stroke:#091356;stroke-width:0"
         d="m 139.29688,45.402344 a 8.4979992,12.736714 0 0 0 -2.98243,9.6875 8.4979992,12.736714 0 0 0 0.23047,2.9375 4.275939,3.6575027 0 0 0 2.94922,1.009765 4.275939,3.6575027 0 0 0 1.41016,-0.205078 16.428867,10.599016 0 0 0 0.0664,0.02539 22.3249,19.593901 61.143631 0 1 6.00586,-1.097656 22.3249,19.593901 61.143631 0 1 5.9961,0.888672 8.4979992,12.736714 0 0 0 0.33789,-3.558594 8.4979992,12.736714 0 0 0 -0.93946,-5.81836 8.8892254,5.6992442 31.019596 0 1 -10.32812,-1.292968 8.8892254,5.6992442 31.019596 0 1 -2.74609,-2.576171 z" />
      <path
         id="rect181"
         style="display:none;fill:#000000;fill-opacity:1;stroke:#091356;stroke-width:0"
         d="m 112.10196,38.21886 c -3.44199,0 -6.21399,2.757534 -6.21399,6.181538 v 9.478358 c 0,0.738568 0.13606,1.444271 0.37284,2.09976 a 16.707018,15.701212 47.106821 0 1 5.67742,-6.939021 16.707018,15.701212 47.106821 0 1 8.19065,-2.45103 16.707018,15.701212 47.106821 0 1 0.59378,0.0039 v -2.191994 c 0,-3.424003 -2.77004,-6.181538 -6.21203,-6.181538 z" />
      <ellipse
         style="display:none;fill:#000000;fill-opacity:1;stroke:#091356;stroke-width:0"
         id="path187"
         cx="85.212997"
         cy="-65.530052"
         rx="4.2280879"
         ry="10.135914"
         transform="matrix(0.65371639,0.75673964,-0.923246,0.38420935,0,0)" />
    </g>
    <ellipse
       style="display:inline;fill:#000000;stroke:#091356;stroke-width:0"
       id="path87"
       cx="91.122543"
       cy="32.636887"
       rx="7.5411277"
       ry="8.4831457"
       transform="rotate(29.530607)" />
    <path
       id="path101"
       style="fill:#ffffff;stroke:#091356;stroke-width:0"
       d="m 70.798828,70.740234 a 7.6721573,8.4454126 20.588519 0 0 -4.017578,4.701172 7.6721573,8.4454126 20.588519 0 0 -0.402344,5.03125 7.5411277,8.4831457 29.530607 0 0 3.38086,-3.445312 7.5411277,8.4831457 29.530607 0 0 1.039062,-6.28711 z" />
    <ellipse
       style="display:inline;fill:#000000;stroke:#091356;stroke-width:0"
       id="path56"
       cx="-8.3602028"
       cy="125.61248"
       rx="5.4039755"
       ry="7.0572801"
       transform="rotate(-26.447706)" />
    <path
       id="path58"
       style="fill:#ffffff;stroke:#091356;stroke-width:0"
       d="m 51.001953,110.88281 a 5.9094807,3.6343503 69.258613 0 0 1.052735,4.58203 5.9094807,3.6343503 69.258613 0 0 2.160156,2.59571 7.0572801,5.4039755 63.552294 0 0 -0.916016,-4.27735 7.0572801,5.4039755 63.552294 0 0 -2.296875,-2.90039 z" />
    <ellipse
       style="display:inline;fill:#000000;stroke:#091356;stroke-width:0"
       id="path110"
       cx="59.84153"
       cy="70.222198"
       rx="10.046853"
       ry="8.1756763"
       transform="rotate(-26.964664)" />
    <path
       id="path115"
       style="display:inline;fill:#ffffff;stroke:#091356;stroke-width:0"
       d="m 91.046875,39.513668 a 7.1025972,9.4780569 68.562826 0 0 -4.492187,0.851562 7.1025972,9.4780569 68.562826 0 0 -4.859376,3.507813 8.1756763,10.046853 63.035336 0 0 7.189454,-1.132813 8.1756763,10.046853 63.035336 0 0 3.835937,-3.072265 7.1025972,9.4780569 68.562826 0 0 -1.673828,-0.154297 z" />
    <ellipse
       style="display:inline;fill:#000000;stroke:#091356;stroke-width:0"
       id="path73"
       cx="158.78362"
       cy="30.166046"
       rx="8.5798292"
       ry="7.3348389"
       transform="rotate(46.405323)" />
    <path
       id="ellipse75"
       style="display:inline;fill:#ffffff;stroke:#091356;stroke-width:0"
       d="m 86.417969,127.78516 a 8.5798292,7.3348389 46.405323 0 0 -1.240235,0.10351 8.5798292,7.3348389 46.405323 0 0 2.0625,3.25195 8.5798292,7.3348389 46.405323 0 0 7.775391,2.85157 8.5798292,7.3348389 46.405323 0 0 -2.060547,-3.25196 8.5798292,7.3348389 46.405323 0 0 -6.537109,-2.95507 z" />
    <ellipse
       style="display:inline;fill:#000000;stroke:#091356;stroke-width:0"
       id="path82"
       cx="46.754673"
       cy="191.47504"
       rx="8.8686295"
       ry="7.3277807"
       transform="matrix(0.89499407,-0.44607803,0.44524938,0.89540661,0,0)" />
    <path
       id="ellipse84"
       style="display:inline;fill:#ffffff;stroke:#091356;stroke-width:0"
       d="m 128.30273,142.92969 a 7.3277708,8.8686376 63.393555 0 0 -4.46679,1.10156 7.3277708,8.8686376 63.393555 0 0 -3.32813,2.60742 7.3277708,8.8686376 63.393555 0 0 6.6211,-0.86328 7.3277708,8.8686376 63.393555 0 0 3.32812,-2.60742 7.3277708,8.8686376 63.393555 0 0 -2.1543,-0.23828 z" />
    <ellipse
       style="display:inline;fill:#7f8ba8;fill-opacity:1;stroke:#091356;stroke-width:0"
       id="path91"
       cx="105.13276"
       cy="93.841782"
       rx="11.536133"
       ry="10.862646" />
    <path
       id="ellipse93"
       style="display:inline;fill:#ffffff;fill-opacity:1;stroke:#091356;stroke-width:0"
       d="m 106.40625,86.392574 a 11.536133,10.862646 0 0 0 -11.382812,10.861328 11.536133,10.862646 0 0 0 0.24414,2.216797 11.536133,10.862646 0 0 0 9.865232,5.234381 11.536133,10.862646 0 0 0 11.53516,-10.863287 11.536133,10.862646 0 0 0 -0.24414,-2.216797 11.536133,10.862646 0 0 0 -9.86328,-5.232422 11.536133,10.862646 0 0 0 -0.1543,0 z" />
    <path
       id="path102"
       style="display:inline;fill:#ffffff;fill-opacity:1;stroke:#091356;stroke-width:0"
       d="m 106.19166,77.695599 a 12.344183,11.581006 0 0 0 -11.646476,7.748047 15.159561,15.053095 0 0 1 10.499996,-4.195313 15.159561,15.053095 0 0 1 13.49024,8.185547 12.344183,11.581006 0 0 0 0.002,-0.15625 12.344183,11.581006 0 0 0 -12.34571,-11.582031 z" />
    <ellipse
       style="display:inline;fill:#000000;fill-opacity:1;stroke:#091356;stroke-width:0"
       id="path160"
       cx="178.51414"
       cy="45.904217"
       rx="15.993674"
       ry="19.67944"
       transform="matrix(0.91787991,0.39685826,-0.39682876,0.91789266,0,0)" />
    <path
       id="ellipse162"
       style="display:inline;fill:#ffffff;fill-opacity:1;stroke:#091356;stroke-width:0"
       d="m 148.11133,93.833984 a 15.993674,19.67944 23.376496 0 0 -17.15235,12.798826 15.993674,19.67944 23.376496 0 0 0.79297,19.16407 15.993674,19.67944 23.376496 0 0 20.43555,-12.40821 15.993674,19.67944 23.376496 0 0 -0.79297,-19.164061 15.993674,19.67944 23.376496 0 0 -3.2832,-0.390625 z" />
    <ellipse
       style="display:inline;fill:#000000;fill-opacity:1;stroke:#091356;stroke-width:0"
       id="path171"
       cx="56.640308"
       cy="119.53463"
       rx="16.471569"
       ry="19.31888"
       transform="matrix(0.76536465,-0.64359688,0.66919116,0.74309029,0,0)" />
    <path
       id="ellipse173"
       style="display:inline;fill:#ffffff;fill-opacity:1;stroke:#091356;stroke-width:0"
       d="m 119.23047,46.466793 a 19.34813,16.437201 42.90899 0 0 -10,3.490234 19.34813,16.437201 42.90899 0 0 -3.3457,4.132813 19.34813,16.437201 42.90899 0 0 4.84961,8.882812 19.34813,16.437201 42.90899 0 0 25.53515,3.753906 19.34813,16.437201 42.90899 0 0 3.3457,-4.134765 19.34813,16.437201 42.90899 0 0 -4.84961,-8.878906 19.34813,16.437201 42.90899 0 0 -15.53515,-7.246094 z" />
    <ellipse
       style="display:inline;fill:#000000;fill-opacity:1;stroke:#091356;stroke-width:0"
       id="path1003"
       cx="137.82001"
       cy="113.57386"
       rx="20.437471"
       ry="27.471464"
       transform="rotate(-14.68331)" />
    <path
       id="ellipse1009"
       style="display:inline;fill:#ffffff;fill-opacity:1;stroke:#091356;stroke-width:0"
       d="m 147.76953,57.042965 a 22.105813,17.665323 69.696876 0 0 -3.32422,0.398437 22.105813,17.665323 69.696876 0 0 -0.16015,0.03906 27.471464,20.437471 75.31669 0 0 -1.94727,22.630859 27.471464,20.437471 75.31669 0 0 14.4375,19.720703 22.105813,17.665323 69.696876 0 0 10.95508,-25.30664 22.105813,17.665323 69.696876 0 0 -19.96094,-17.482422 z" />
    <path
       id="path1097"
       style="fill:#ffffff;fill-opacity:1;stroke:#091356;stroke-width:0"
       d="m 154.36495,93.768543 a 2.6602998,5.835921 0 0 0 -2.65908,5.836476 2.6602998,5.835921 0 0 0 2.39212,5.805141 3.2687085,4.9970135 0 0 1 -0.029,-0.65807 3.2687085,4.9970135 0 0 1 2.95498,-4.972761 2.6602998,5.835921 0 0 0 0.002,-0.17431 2.6602998,5.835921 0 0 0 -2.66114,-5.836476 z" />
    <path
       id="path1112"
       style="fill:#000000;fill-opacity:1;stroke:#091356;stroke-width:0"
       d="m 161.62305,100.40234 a 4.8961396,2.3942161 0 0 0 -4.89649,2.39454 4.8961396,2.3942161 0 0 0 4.89649,2.39453 4.8961396,2.3942161 0 0 0 0.0547,0 4.5413938,2.6781812 0 0 1 -0.0937,-0.54102 4.5413938,2.6781812 0 0 1 4.54102,-2.67773 4.5413938,2.6781812 0 0 1 0.0957,0.002 4.8961396,2.3942161 0 0 0 -4.59765,-1.57227 z" />
    <path
       id="path1122"
       style="fill:#ffffff;fill-opacity:1;stroke:#091356;stroke-width:0"
       d="m 135.63086,54.740234 a 8.212184,4.0682287 0 0 0 -6.04492,3.921875 8.212184,4.0682287 0 0 0 8.21094,4.06836 8.212184,4.0682287 0 0 0 8.21289,-4.06836 8.212184,4.0682287 0 0 0 -0.51758,-1.417968 7.4395313,4.134047 0 0 1 -2.81446,0.30664 7.4395313,4.134047 0 0 1 -7.04687,-2.810547 z" />
    <path
       id="path1129"
       style="fill:#000000;fill-opacity:1;stroke:#091356;stroke-width:0"
       d="m 140.2168,48.714844 a 4.5624833,9.2152967 39.714237 0 0 -0.38672,0.451172 4.5624833,9.2152967 39.714237 0 0 -3.27735,6.595703 7.4395313,4.134047 0 0 0 6.125,1.789062 7.4395313,4.134047 0 0 0 1.70899,-0.111328 4.5624833,9.2152967 39.714237 0 0 2.46094,-2.441406 4.5624833,9.2152967 39.714237 0 0 2.34375,-3.648438 5.9157314,4.5869627 0 0 1 -3.26172,0.759766 5.9157314,4.5869627 0 0 1 -5.71289,-3.394531 z" />
    <path
       id="path1139"
       style="fill:#ffffff;fill-opacity:1;stroke:#091356;stroke-width:0"
       d="m 135.40039,59.992188 a 10.339437,4.7376076 24.421701 0 0 -4.24805,2.765624 10.339437,4.7376076 24.421701 0 0 3.51368,5.144532 4.345427,4.0888262 0 0 1 2.19921,-0.564453 4.345427,4.0888262 0 0 1 4.34375,3.964843 10.339437,4.7376076 24.421701 0 0 9.17579,-1.93164 10.339437,4.7376076 24.421701 0 0 -9.61719,-8.400391 10.339437,4.7376076 24.421701 0 0 -5.36719,-0.978515 z" />
    <path
       id="path322"
       style="fill:#ffffff;fill-opacity:1;stroke:#091356;stroke-width:0"
       d="m 150.04297,82.929688 a 4.1029277,10.826772 13.71981 0 0 -4.58789,5.095703 3.2890933,4.2137804 0 0 1 0,0.002 3.2890933,4.2137804 0 0 1 0.61133,2.443359 3.2890933,4.2137804 0 0 1 -2.55274,4.107422 4.1029277,10.826772 13.71981 0 0 2.28516,9.474608 4.1029277,10.826772 13.71981 0 0 6.36328,-10.732421 4.1029277,10.826772 13.71981 0 0 -2.11914,-10.390624 z" />
    <path
       id="path226"
       style="display:inline;fill:#091356;fill-opacity:1;stroke:#091356;stroke-width:0"
       d="m 176.48438,97.125 a 27.471464,20.437471 75.31669 0 1 -7.41407,4.38086 27.471464,20.437471 75.31669 0 1 -2.85351,0.46289 4.8961396,2.3942161 0 0 1 0.004,0.006 4.5413938,2.6781812 0 0 0 -0.0762,-0.002 27.471464,20.437471 75.31669 0 1 -0.66797,0.0273 4.5413938,2.6781812 0 0 0 -3.89258,2.65039 4.5413938,2.6781812 0 0 0 0.0547,0.41016 4.5413938,2.6781812 0 0 0 0.004,0.0156 4.5413938,2.6781812 0 0 0 0.0351,0.11524 4.8961396,2.3942161 0 0 1 -0.006,0 15.993674,19.67944 23.376496 0 1 -1.35352,14.13671 15.993674,19.67944 23.376496 0 1 -5.3418,7.69532 11.475655,19.660828 42.894191 0 1 -6.45312,14.17968 11.475655,19.660828 42.894191 0 1 -12.88086,8.94532 7.3277708,8.8686376 63.393555 0 1 -3.10938,5.5664 13.70149,45.057719 31.604165 0 0 -0.50976,3.88868 66.639725,68.415253 0 0 0 44.46094,-62.47852 z" />
    <path
       id="path281"
       style="display:inline;fill:#091356;fill-opacity:1;stroke:#091356;stroke-width:0"
       d="m 166.7793,107.64062 a 33.173519,18.741941 0 0 0 -4.63672,0.1836 15.993674,19.67944 23.376496 0 1 -1.82422,11.5039 15.993674,19.67944 23.376496 0 1 -22.49024,11.71485 15.993674,19.67944 23.376496 0 1 -4.04687,-2.74219 33.173519,18.741941 0 0 0 22.51172,15.86328 66.639725,68.415253 0 0 0 18.97265,-35.89844 33.173519,18.741941 0 0 0 -8.48632,-0.625 z" />
  </g>
</svg>
